<svg width="30" height="30" viewBox="0 0 30 30" fill="none" xmlns="http://www.w3.org/2000/svg">
<path d="M27.5156 2.625H24.2812V1.21875C24.2812 1.06406 24.1547 0.9375 24 0.9375H6C5.84531 0.9375 5.71875 1.06406 5.71875 1.21875V2.625H2.48438C2.07412 2.625 1.68066 2.78797 1.39057 3.07807C1.10047 3.36816 0.9375 3.76162 0.9375 4.17188V9.375C0.9375 12.2473 3.04688 14.6344 5.79609 15.0703C6.34102 19.1555 9.62109 22.3723 13.7344 22.8223V26.5207H6.84375C6.22148 26.5207 5.71875 27.0234 5.71875 27.6457V28.7812C5.71875 28.9359 5.84531 29.0625 6 29.0625H24C24.1547 29.0625 24.2812 28.9359 24.2812 28.7812V27.6457C24.2812 27.0234 23.7785 26.5207 23.1562 26.5207H16.2656V22.8223C20.3789 22.3723 23.659 19.1555 24.2039 15.0703C26.9531 14.6344 29.0625 12.2473 29.0625 9.375V4.17188C29.0625 3.76162 28.8995 3.36816 28.6094 3.07807C28.3193 2.78797 27.9259 2.625 27.5156 2.625ZM5.71875 12.4547C5.06571 12.2461 4.49585 11.8354 4.09143 11.2818C3.68701 10.7283 3.46896 10.0605 3.46875 9.375V5.15625H5.71875V12.4547ZM21.75 13.875C21.75 15.6012 21.0785 17.2289 19.8551 18.4488C18.6316 19.6723 17.0074 20.3438 15.2812 20.3438H14.7188C12.9926 20.3438 11.3648 19.6723 10.1449 18.4488C8.92148 17.2254 8.25 15.6012 8.25 13.875V3.46875H21.75V13.875ZM26.5312 9.375C26.5312 10.8164 25.5855 12.0398 24.2812 12.4547V5.15625H26.5312V9.375Z" fill="#2F54EB"/>
</svg>
