<svg width="13.233643" height="12.637451" viewBox="0 0 13.2336 12.6375" fill="none" xmlns="http://www.w3.org/2000/svg" xmlns:xlink="http://www.w3.org/1999/xlink">
	<desc>
			Created with Pixso.
	</desc>
	<defs/>
	<path id="Vector" d="M12.8059 4.44995L8.83862 3.87354L7.06519 0.278076C7.01685 0.179688 6.93726 0.100098 6.83862 0.0515137C6.5918 -0.0703125 6.29175 0.03125 6.16846 0.278076L4.39502 3.87354L0.427734 4.44995C0.318359 4.46558 0.218506 4.51709 0.141846 4.59521C0.0493164 4.69043 -0.00170898 4.81836 0 4.95117C0.00170898 5.08398 0.0561523 5.21045 0.151123 5.30322L3.02148 8.10156L2.34351 12.0532C2.32739 12.145 2.33765 12.2395 2.3728 12.3259C2.40796 12.4124 2.46655 12.4873 2.54199 12.5422C2.61743 12.5969 2.70679 12.6296 2.7998 12.6362C2.89282 12.6428 2.98584 12.6233 3.06836 12.5796L6.61694 10.7141L10.1653 12.5796C10.2622 12.6313 10.3748 12.6484 10.4824 12.6296C10.7544 12.5828 10.9373 12.325 10.8904 12.0532L10.2122 8.10156L13.0825 5.30322C13.1606 5.22656 13.2122 5.12646 13.2278 5.01709C13.27 4.74365 13.0793 4.49072 12.8059 4.44995Z" fill="#FAAD14" fill-opacity="1.000000" fill-rule="nonzero"/>
</svg>
